<svg width="102" height="42" viewBox="0 0 102 42" fill="none" xmlns="http://www.w3.org/2000/svg">
<path d="M4.92 0.119999H24.3C26.02 0.119999 27.56 0.379998 28.92 0.899996C30.32 1.42 31.5 2.14 32.46 3.06C33.42 3.98 34.14 5.12 34.62 6.48C35.14 7.8 35.4 9.26 35.4 10.86C35.4 12.46 35.18 13.82 34.74 14.94C34.34 16.02 33.78 16.92 33.06 17.64C32.38 18.36 31.58 18.9 30.66 19.26C29.78 19.62 28.86 19.82 27.9 19.86V20.22C28.82 20.22 29.8 20.4 30.84 20.76C31.92 21.12 32.9 21.7 33.78 22.5C34.7 23.26 35.46 24.26 36.06 25.5C36.66 26.7 36.96 28.2 36.96 30C36.96 31.68 36.68 33.26 36.12 34.74C35.6 36.18 34.86 37.44 33.9 38.52C32.94 39.6 31.8 40.46 30.48 41.1C29.16 41.7 27.72 42 26.16 42H4.92V0.119999ZM12.84 35.28H23.88C25.4 35.28 26.58 34.9 27.42 34.14C28.26 33.34 28.68 32.2 28.68 30.72V28.68C28.68 27.2 28.26 26.06 27.42 25.26C26.58 24.46 25.4 24.06 23.88 24.06H12.84V35.28ZM12.84 17.58H22.62C24.06 17.58 25.18 17.2 25.98 16.44C26.78 15.64 27.18 14.54 27.18 13.14V11.28C27.18 9.88 26.78 8.8 25.98 8.04C25.18 7.24 24.06 6.84 22.62 6.84H12.84V17.58Z" fill="black"/>
<path d="M52.125 18.8C51.1583 18.8 50.2917 18.6417 49.525 18.325C48.775 17.9917 48.1333 17.5333 47.6 16.95C47.0833 16.35 46.6833 15.6333 46.4 14.8C46.1167 13.95 45.975 13 45.975 11.95C45.975 10.9167 46.1083 9.98333 46.375 9.15C46.6583 8.31667 47.0583 7.60833 47.575 7.025C48.0917 6.425 48.725 5.96667 49.475 5.65C50.225 5.31667 51.075 5.15 52.025 5.15C53.0417 5.15 53.925 5.325 54.675 5.675C55.425 6.025 56.0417 6.5 56.525 7.1C57.0083 7.7 57.3667 8.4 57.6 9.2C57.85 9.98333 57.975 10.825 57.975 11.725V12.775H49.3V13.1C49.3 14.05 49.5667 14.8167 50.1 15.4C50.6333 15.9667 51.425 16.25 52.475 16.25C53.275 16.25 53.925 16.0833 54.425 15.75C54.9417 15.4167 55.4 14.9917 55.8 14.475L57.525 16.4C56.9917 17.15 56.2583 17.7417 55.325 18.175C54.4083 18.5917 53.3417 18.8 52.125 18.8ZM52.075 7.55C51.225 7.55 50.55 7.83333 50.05 8.4C49.55 8.96667 49.3 9.7 49.3 10.6V10.8H54.65V10.575C54.65 9.675 54.425 8.95 53.975 8.4C53.5417 7.83333 52.9083 7.55 52.075 7.55ZM64.8654 18.5C63.7654 18.5 62.9238 18.2167 62.3404 17.65C61.7738 17.0667 61.4904 16.2417 61.4904 15.175V8H59.5654V5.45H60.5654C61.0488 5.45 61.3738 5.34167 61.5404 5.125C61.7238 4.89167 61.8154 4.55 61.8154 4.1V1.875H64.6904V5.45H67.3654V8H64.6904V15.95H67.1654V18.5H64.8654ZM74.0695 18.5C72.9695 18.5 72.1279 18.2167 71.5445 17.65C70.9779 17.0667 70.6945 16.2417 70.6945 15.175V8H68.7695V5.45H69.7695C70.2529 5.45 70.5779 5.34167 70.7445 5.125C70.9279 4.89167 71.0195 4.55 71.0195 4.1V1.875H73.8945V5.45H76.5695V8H73.8945V15.95H76.3695V18.5H74.0695ZM84.5225 18.8C83.5558 18.8 82.6891 18.6417 81.9225 18.325C81.1725 17.9917 80.5308 17.5333 79.9975 16.95C79.4808 16.35 79.0808 15.6333 78.7975 14.8C78.5141 13.95 78.3725 13 78.3725 11.95C78.3725 10.9167 78.5058 9.98333 78.7725 9.15C79.0558 8.31667 79.4558 7.60833 79.9725 7.025C80.4891 6.425 81.1225 5.96667 81.8725 5.65C82.6225 5.31667 83.4725 5.15 84.4225 5.15C85.4391 5.15 86.3225 5.325 87.0725 5.675C87.8225 6.025 88.4391 6.5 88.9225 7.1C89.4058 7.7 89.7641 8.4 89.9975 9.2C90.2475 9.98333 90.3725 10.825 90.3725 11.725V12.775H81.6975V13.1C81.6975 14.05 81.9641 14.8167 82.4975 15.4C83.0308 15.9667 83.8225 16.25 84.8725 16.25C85.6725 16.25 86.3225 16.0833 86.8225 15.75C87.3391 15.4167 87.7975 14.9917 88.1975 14.475L89.9225 16.4C89.3891 17.15 88.6558 17.7417 87.7225 18.175C86.8058 18.5917 85.7391 18.8 84.5225 18.8ZM84.4725 7.55C83.6225 7.55 82.9475 7.83333 82.4475 8.4C81.9475 8.96667 81.6975 9.7 81.6975 10.6V10.8H87.0475V10.575C87.0475 9.675 86.8225 8.95 86.3725 8.4C85.9391 7.83333 85.3058 7.55 84.4725 7.55ZM93.1879 18.5V5.45H96.3879V8.15H96.5129C96.5962 7.8 96.7212 7.46667 96.8879 7.15C97.0712 6.81667 97.3046 6.525 97.5879 6.275C97.8712 6.025 98.2046 5.825 98.5879 5.675C98.9879 5.525 99.4462 5.45 99.9629 5.45H100.663V8.475H99.6629C98.5796 8.475 97.7629 8.63333 97.2129 8.95C96.6629 9.26667 96.3879 9.78333 96.3879 10.5V18.5H93.1879Z" fill="black"/>
<path d="M55.65 38.325H55.525C55.4083 38.6583 55.25 38.975 55.05 39.275C54.8667 39.5583 54.625 39.8167 54.325 40.05C54.0417 40.2833 53.6917 40.4667 53.275 40.6C52.875 40.7333 52.4083 40.8 51.875 40.8C50.525 40.8 49.4917 40.3583 48.775 39.475C48.0583 38.5917 47.7 37.3333 47.7 35.7V27.45H50.9V35.375C50.9 36.275 51.075 36.9667 51.425 37.45C51.775 37.9167 52.3333 38.15 53.1 38.15C53.4167 38.15 53.725 38.1083 54.025 38.025C54.3417 37.9417 54.6167 37.8167 54.85 37.65C55.0833 37.4667 55.275 37.25 55.425 37C55.575 36.7333 55.65 36.425 55.65 36.075V27.45H58.85V40.5H55.65V38.325ZM66.8223 40.8C65.5723 40.8 64.5223 40.5917 63.6723 40.175C62.8223 39.7417 62.0723 39.15 61.4223 38.4L63.3723 36.5C63.8556 37.05 64.3806 37.4833 64.9473 37.8C65.5306 38.1167 66.1973 38.275 66.9473 38.275C67.7139 38.275 68.2639 38.1417 68.5973 37.875C68.9473 37.6083 69.1223 37.2417 69.1223 36.775C69.1223 36.3917 68.9973 36.0917 68.7473 35.875C68.5139 35.6417 68.1056 35.4833 67.5223 35.4L66.2223 35.225C64.8056 35.0417 63.7223 34.6417 62.9723 34.025C62.2389 33.3917 61.8723 32.475 61.8723 31.275C61.8723 30.6417 61.9889 30.075 62.2223 29.575C62.4556 29.0583 62.7889 28.625 63.2223 28.275C63.6556 27.9083 64.1723 27.6333 64.7723 27.45C65.3889 27.25 66.0723 27.15 66.8223 27.15C67.4556 27.15 68.0139 27.2 68.4973 27.3C68.9973 27.3833 69.4473 27.5167 69.8473 27.7C70.2473 27.8667 70.6139 28.0833 70.9473 28.35C71.2806 28.6 71.6056 28.8833 71.9223 29.2L70.0473 31.075C69.6639 30.675 69.2056 30.3417 68.6723 30.075C68.1389 29.8083 67.5556 29.675 66.9223 29.675C66.2223 29.675 65.7139 29.8 65.3973 30.05C65.0973 30.3 64.9473 30.625 64.9473 31.025C64.9473 31.4583 65.0723 31.7917 65.3223 32.025C65.5889 32.2417 66.0306 32.4 66.6473 32.5L67.9723 32.675C70.7889 33.075 72.1973 34.3583 72.1973 36.525C72.1973 37.1583 72.0639 37.7417 71.7973 38.275C71.5473 38.7917 71.1889 39.2417 70.7223 39.625C70.2556 39.9917 69.6889 40.2833 69.0223 40.5C68.3723 40.7 67.6389 40.8 66.8223 40.8ZM84.6229 40.5C83.9229 40.5 83.3645 40.3 82.9479 39.9C82.5479 39.4833 82.2979 38.9333 82.1979 38.25H82.0479C81.8312 39.1 81.3895 39.7417 80.7229 40.175C80.0562 40.5917 79.2312 40.8 78.2479 40.8C76.9145 40.8 75.8895 40.45 75.1729 39.75C74.4562 39.05 74.0979 38.1167 74.0979 36.95C74.0979 35.6 74.5812 34.6 75.5479 33.95C76.5145 33.2833 77.8895 32.95 79.6729 32.95H81.8979V32C81.8979 31.2667 81.7062 30.7 81.3229 30.3C80.9395 29.9 80.3229 29.7 79.4729 29.7C78.7229 29.7 78.1145 29.8667 77.6479 30.2C77.1979 30.5167 76.8145 30.9 76.4979 31.35L74.5979 29.65C75.0812 28.9 75.7229 28.3 76.5229 27.85C77.3229 27.3833 78.3812 27.15 79.6979 27.15C81.4645 27.15 82.8062 27.55 83.7229 28.35C84.6395 29.15 85.0979 30.3 85.0979 31.8V37.95H86.3979V40.5H84.6229ZM79.3229 38.475C80.0395 38.475 80.6479 38.3167 81.1479 38C81.6479 37.6833 81.8979 37.2167 81.8979 36.6V34.875H79.8479C78.1812 34.875 77.3479 35.4083 77.3479 36.475V36.9C77.3479 37.4333 77.5145 37.8333 77.8479 38.1C78.1979 38.35 78.6895 38.475 79.3229 38.475ZM88.9877 40.5V27.45H92.1877V29.625H92.3127C92.5794 28.925 92.996 28.3417 93.5627 27.875C94.146 27.3917 94.946 27.15 95.9627 27.15C97.3127 27.15 98.346 27.5917 99.0627 28.475C99.7794 29.3583 100.138 30.6167 100.138 32.25V40.5H96.9377V32.575C96.9377 31.6417 96.771 30.9417 96.4377 30.475C96.1044 30.0083 95.5544 29.775 94.7877 29.775C94.4544 29.775 94.1294 29.825 93.8127 29.925C93.5127 30.0083 93.2377 30.1417 92.9877 30.325C92.7544 30.4917 92.5627 30.7083 92.4127 30.975C92.2627 31.225 92.1877 31.525 92.1877 31.875V40.5H88.9877Z" fill="black"/>
</svg>
